<svg xmlns="http://www.w3.org/2000/svg" viewBox="0 0 800 520" role="img" aria-labelledby="title desc">
  <title id="title">Evidence empty state illustration</title>
  <desc id="desc">Warm evidence ledger tiles connected to the Terminal Cap mark.</desc>
  <rect width="800" height="520" rx="32" fill="#FAFAF8"/>
  <rect x="94" y="84" width="612" height="352" rx="30" fill="#E8E6E0"/>
  <g stroke="#D4933A" stroke-width="4" stroke-linecap="round" opacity=".45">
    <path d="M236 195h126"/>
    <path d="M438 195h126"/>
    <path d="M400 234v74"/>
  </g>
  <rect x="138" y="146" width="160" height="98" rx="18" fill="#FAFAF8" stroke="#E6E4DF" stroke-width="2"/>
  <rect x="320" y="132" width="160" height="126" rx="18" fill="#FAFAF8" stroke="#E6E4DF" stroke-width="2"/>
  <rect x="502" y="146" width="160" height="98" rx="18" fill="#FAFAF8" stroke="#E6E4DF" stroke-width="2"/>
  <rect x="320" y="308" width="160" height="88" rx="18" fill="#141420"/>
  <circle cx="178" cy="184" r="10" fill="#3A72C8"/>
  <circle cx="360" cy="176" r="10" fill="#D4933A"/>
  <circle cx="542" cy="184" r="10" fill="#2F9B73"/>
  <rect x="202" y="176" width="58" height="10" rx="5" fill="#E6E4DF"/>
  <rect x="384" y="168" width="58" height="10" rx="5" fill="#E6E4DF"/>
  <rect x="566" y="176" width="58" height="10" rx="5" fill="#E6E4DF"/>
  <g transform="translate(344 322) scale(.44)">
    <path d="M69 143 128 174 187 143v31l-59 36-59-36Z" fill="#FAFAF8"/>
    <path d="M57 122 128 158l71-36v24l-71 37-71-37Z" fill="#D4933A"/>
    <path d="M39 96c0-4 2-8 6-10l74-40c6-3 12-3 18 0l74 40c4 2 6 6 6 10v14c0 4-2 8-6 10l-74 40c-6 3-12 3-18 0l-74-40c-4-2-6-6-6-10Z" fill="#FAFAF8"/>
    <g transform="matrix(1 .24 -.68 .45 126 96)" fill="none" stroke="#D4933A" stroke-width="12" stroke-linecap="round" stroke-linejoin="round">
      <path d="M-34-20-4 0-34 20"/>
      <path d="M12 19h42"/>
    </g>
  </g>
</svg>
