<svg xmlns="http://www.w3.org/2000/svg" viewBox="0 0 800 520" role="img" aria-labelledby="title desc">
  <title id="title">Experiment empty state illustration</title>
  <desc id="desc">Terminal Cap above warm experiment cards and a metric trace.</desc>
  <rect width="800" height="520" rx="32" fill="#FAFAF8"/>
  <path d="M96 402c88-22 166-18 234 12 78 35 166 32 264-8 73-30 141-36 206-18v132H96Z" fill="#FDF0DC"/>
  <rect x="112" y="104" width="576" height="300" rx="28" fill="#E8E6E0"/>
  <rect x="156" y="244" width="146" height="94" rx="16" fill="#FAFAF8" stroke="#E6E4DF" stroke-width="2"/>
  <rect x="327" y="214" width="146" height="124" rx="16" fill="#FAFAF8" stroke="#E6E4DF" stroke-width="2"/>
  <rect x="498" y="264" width="146" height="74" rx="16" fill="#FAFAF8" stroke="#E6E4DF" stroke-width="2"/>
  <rect x="182" y="282" width="74" height="9" rx="4.5" fill="#D4933A"/>
  <rect x="353" y="254" width="74" height="9" rx="4.5" fill="#3A72C8"/>
  <rect x="524" y="294" width="74" height="9" rx="4.5" fill="#2F9B73"/>
  <path d="M172 326c60-56 94-24 133-48 44-26 52-105 98-88 46 18 43 113 89 121 47 8 70-75 126-61" fill="none" stroke="#3A72C8" stroke-width="6" stroke-linecap="round"/>
  <g transform="translate(300 86) scale(.78)">
    <path d="M69 143 128 174 187 143v31l-59 36-59-36Z" fill="#141420"/>
    <path d="M57 122 128 158l71-36v24l-71 37-71-37Z" fill="#D4933A"/>
    <path d="M39 96c0-4 2-8 6-10l74-40c6-3 12-3 18 0l74 40c4 2 6 6 6 10v14c0 4-2 8-6 10l-74 40c-6 3-12 3-18 0l-74-40c-4-2-6-6-6-10Z" fill="#141420"/>
    <g transform="matrix(1 .24 -.68 .45 126 96)" fill="none" stroke="#D4933A" stroke-width="12" stroke-linecap="round" stroke-linejoin="round">
      <path d="M-34-20-4 0-34 20"/>
      <path d="M12 19h42"/>
    </g>
  </g>
</svg>
